<svg width="1054" height="638" viewBox="0 0 1054 638" fill="none" xmlns="http://www.w3.org/2000/svg">
<path d="M637.122 155.07C636.631 149.391 632.878 144.512 627.516 142.567C622.14 140.609 616.122 141.942 612.078 145.966L529.333 228.425L437.603 199.479L408.559 108.061L491.305 25.5955C495.355 21.5637 496.675 15.5652 494.725 10.2169C492.754 4.85804 487.871 1.12544 482.16 0.63343C431.907 -3.68161 382.669 14.1995 347.069 49.6839C298.312 98.2796 285.4 169.243 308.264 229.731C305.765 231.829 303.3 234.052 300.867 236.45L24.661 496.198C24.5636 496.292 24.4675 496.396 24.3621 496.489C-8.12071 528.863 -8.12071 581.538 24.3621 613.918C56.8503 646.289 109.318 645.896 141.795 613.521C141.935 613.391 142.064 613.261 142.192 613.116L400.549 335.702C402.904 333.345 405.091 330.878 407.153 328.346C467.862 351.174 539.112 338.337 587.912 289.709C623.503 254.222 641.457 205.146 637.122 155.07ZM100.173 578.945C88.203 590.872 68.8174 590.864 56.849 578.945C44.8845 567.029 44.8845 547.694 56.849 535.774C68.8174 523.855 88.203 523.855 100.173 535.774C112.137 547.694 112.137 567.029 100.173 578.945Z" fill="#7D3A0B"/>
<path d="M853.624 249.331C854.717 243.736 852.454 238.011 847.835 234.663C843.207 231.299 837.055 230.92 832.059 233.673L729.799 290.122L649.598 237.003L646.868 141.118L749.13 84.6636C754.134 81.9046 757.057 76.5027 756.655 70.8237C756.237 65.129 752.571 60.1945 747.217 58.1468C700.1 40.1422 647.842 43.7535 603.845 68.047C543.587 101.316 511.623 165.97 516.935 230.419C513.954 231.747 510.971 233.204 507.973 234.838L170.897 408.362C170.777 408.426 170.656 408.499 170.529 408.56C130.385 430.723 115.871 481.358 138.174 521.44C160.484 561.515 211.028 575.604 251.167 553.44C251.338 553.353 251.497 553.263 251.66 553.159L576.446 357.732C579.359 356.115 582.141 354.347 584.82 352.482C636.888 391.165 708.915 398.472 769.223 365.184C813.213 340.886 843.994 298.662 853.624 249.331ZM220.684 508.726C205.892 516.89 187.259 511.537 179.038 496.78C170.821 482.027 176.148 463.44 190.933 455.281C205.722 447.124 224.357 452.47 232.579 467.227C240.796 481.984 235.468 500.571 220.684 508.726Z" fill="#AE510F"/>
<path d="M1052.63 377.264C1055.04 372.1 1054.23 365.997 1050.56 361.63C1046.88 357.246 1041 355.39 1035.49 356.852L922.614 386.876L857.642 315.925L878.18 222.228L991.057 192.199C996.58 190.733 1000.72 186.199 1001.71 180.591C1002.68 174.965 1000.31 169.29 995.614 166.007C954.251 137.134 902.671 127.991 854.106 140.915C787.592 158.612 740.942 213.61 730.511 277.43C727.298 277.998 724.051 278.69 720.746 279.549L351.72 366.342C351.588 366.375 351.453 366.417 351.315 366.445C307.003 378.234 280.676 423.852 292.623 468.141C304.579 512.426 350.214 538.329 394.521 526.537C394.708 526.494 394.884 526.445 395.067 526.384L757.466 415.364C760.684 414.501 763.81 413.458 766.861 412.297C808.027 462.432 876.148 486.953 942.714 469.25C991.275 456.32 1031.35 422.799 1052.63 377.264ZM375.757 475.774C359.43 480.116 342.645 470.412 338.237 454.104C333.831 437.8 343.496 421.055 359.815 416.716C376.137 412.381 392.925 422.077 397.334 438.386C401.738 454.694 392.074 471.439 375.757 475.774Z" fill="#F97316"/>
</svg>
