<svg width="512" height="512" viewBox="0 0 512 512" fill="none" xmlns="http://www.w3.org/2000/svg">
<g clip-path="url(#clip0_5_2)">
<circle cx="256" cy="256" r="256" fill="#1C1917"/>
<path d="M394.678 172.507C394.429 169.632 392.528 167.162 389.812 166.177C387.09 165.186 384.042 165.861 381.994 167.898L340.087 209.645L293.629 194.99L278.919 148.708L320.827 106.958C322.878 104.917 323.547 101.88 322.559 99.1725C321.561 96.4595 319.087 94.5698 316.195 94.3207C290.744 92.1361 265.807 101.189 247.777 119.153C223.083 143.756 216.544 179.683 228.124 210.306C226.858 211.368 225.609 212.494 224.378 213.707L84.4898 345.21C84.4405 345.258 84.3919 345.31 84.3385 345.357C67.8872 361.747 67.8872 388.415 84.3385 404.808C100.792 421.197 127.365 420.997 143.814 404.607C143.885 404.541 143.95 404.475 144.015 404.402L274.863 263.956C276.055 262.762 277.163 261.513 278.207 260.232C308.954 271.789 345.039 265.289 369.754 240.671C387.78 222.705 396.873 197.859 394.678 172.507ZM122.734 387.102C116.671 393.14 106.853 393.136 100.792 387.102C94.7323 381.07 94.7323 371.281 100.792 365.246C106.853 359.212 116.671 359.212 122.734 365.246C128.793 371.281 128.793 381.07 122.734 387.102Z" fill="#7D3A0B"/>
<path d="M416.678 172.507C416.429 169.632 414.528 167.162 411.812 166.177C409.09 165.186 406.042 165.861 403.994 167.898L362.087 209.645L315.629 194.99L300.919 148.708L342.827 106.958C344.878 104.917 345.547 101.88 344.559 99.1725C343.561 96.4595 341.087 94.5698 338.195 94.3207C312.744 92.1361 287.807 101.189 269.777 119.153C245.083 143.756 238.544 179.683 250.124 210.306C248.858 211.368 247.609 212.494 246.378 213.707L106.49 345.21C106.441 345.258 106.392 345.31 106.338 345.357C89.8872 361.747 89.8872 388.415 106.338 404.808C122.792 421.197 149.365 420.997 165.814 404.607C165.885 404.541 165.95 404.475 166.015 404.402L296.863 263.956C298.055 262.762 299.163 261.513 300.207 260.232C330.954 271.789 367.039 265.289 391.754 240.671C409.78 222.705 418.873 197.859 416.678 172.507ZM144.734 387.102C138.671 393.14 128.853 393.136 122.792 387.102C116.732 381.07 116.732 371.281 122.792 365.246C128.853 359.212 138.671 359.212 144.734 365.246C150.793 371.281 150.793 381.07 144.734 387.102Z" fill="#AE510F"/>
<path d="M438.678 172.507C438.429 169.632 436.528 167.162 433.812 166.177C431.09 165.186 428.042 165.861 425.994 167.898L384.087 209.645L337.629 194.99L322.919 148.708L364.827 106.958C366.878 104.917 367.547 101.88 366.559 99.1725C365.561 96.4595 363.087 94.5698 360.195 94.3207C334.744 92.1361 309.807 101.189 291.777 119.153C267.083 143.756 260.544 179.683 272.124 210.306C270.858 211.368 269.609 212.494 268.378 213.707L128.49 345.21C128.441 345.258 128.392 345.31 128.338 345.357C111.887 361.747 111.887 388.415 128.338 404.808C144.792 421.197 171.365 420.997 187.814 404.607C187.885 404.541 187.95 404.475 188.015 404.402L318.863 263.956C320.055 262.762 321.163 261.513 322.207 260.232C352.954 271.789 389.039 265.289 413.754 240.671C431.78 222.705 440.873 197.859 438.678 172.507ZM166.734 387.102C160.671 393.14 150.853 393.136 144.792 387.102C138.732 381.07 138.732 371.281 144.792 365.246C150.853 359.212 160.671 359.212 166.734 365.246C172.793 371.281 172.793 381.07 166.734 387.102Z" fill="#F97316"/>
</g>
<defs>
<clipPath id="clip0_5_2">
<rect width="512" height="512" rx="256" fill="white"/>
</clipPath>
</defs>
</svg>
