<svg width="99" height="59" viewBox="0 0 99 59" fill="none" xmlns="http://www.w3.org/2000/svg">
<g clip-path="url(#clip0_7_16)">
<path d="M58.9273 14.337C58.8819 13.8119 58.5347 13.3609 58.0388 13.181C57.5416 13 56.985 13.1232 56.611 13.4952L48.9579 21.119L40.4738 18.4428L37.7875 9.99078L45.4407 2.36643C45.8152 1.99367 45.9374 1.43908 45.757 0.944605C45.5747 0.449149 45.123 0.104052 44.5949 0.0585636C39.947 -0.340382 35.3929 1.31281 32.1003 4.59351C27.5908 9.08642 26.3966 15.6473 28.5113 21.2397C28.2802 21.4337 28.0521 21.6393 27.8271 21.8609L2.28089 45.8759C2.27188 45.8846 2.263 45.8942 2.25325 45.9028C-0.751082 48.8959 -0.751082 53.766 2.25325 56.7596C5.25807 59.7525 10.1108 59.7162 13.1146 56.723C13.1276 56.711 13.1394 56.6989 13.1513 56.6855L37.0467 31.0373C37.2645 30.8193 37.4668 30.5913 37.6575 30.3572C43.2724 32.4677 49.8623 31.2808 54.3758 26.785C57.6677 23.504 59.3282 18.9668 58.9273 14.337ZM9.26496 53.5263C8.15788 54.6289 6.3649 54.6282 5.25795 53.5263C4.15136 52.4246 4.15136 50.6369 5.25795 49.5349C6.3649 48.4329 8.15788 48.4329 9.26496 49.5349C10.3715 50.6369 10.3715 52.4246 9.26496 53.5263Z" fill="#7D3A0B"/>
<path d="M78.9515 23.0518C79.0526 22.5346 78.8432 22.0053 78.4161 21.6957C77.988 21.3847 77.419 21.3497 76.9569 21.6042L67.499 26.8231L60.0812 21.9121L59.8286 13.0471L69.2869 7.82755C69.7497 7.57247 70.02 7.07304 69.9829 6.548C69.9442 6.02149 69.6052 5.56527 69.11 5.37595C64.7521 3.71134 59.9188 4.04522 55.8495 6.29127C50.2762 9.36713 47.3199 15.3447 47.8112 21.3033C47.5355 21.4261 47.2596 21.5608 46.9823 21.7119L15.8062 37.7551C15.7952 37.761 15.784 37.7677 15.7722 37.7733C12.0593 39.8224 10.7169 44.5038 12.7797 48.2096C14.8431 51.9148 19.5179 53.2174 23.2304 51.1682C23.2462 51.1602 23.2609 51.1519 23.276 51.1422L53.3153 33.0741C53.5848 32.9246 53.8421 32.7611 54.0899 32.5886C58.9056 36.1651 65.5674 36.8406 71.1452 33.763C75.2139 31.5166 78.0608 27.6127 78.9515 23.0518ZM20.411 47.0342C19.0429 47.789 17.3196 47.2941 16.5592 45.9297C15.7992 44.5657 16.2919 42.8472 17.6594 42.0929C19.0272 41.3388 20.7507 41.833 21.5112 43.1974C22.2711 44.5618 21.7784 46.2802 20.411 47.0342Z" fill="#AE510F"/>
<path d="M97.3571 34.8799C97.5803 34.4024 97.5052 33.8382 97.1657 33.4345C96.8255 33.0291 96.282 32.8575 95.772 32.9927L85.3324 35.7685L79.3231 29.2088L81.2227 20.546L91.6627 17.7697C92.1734 17.6342 92.5565 17.215 92.6475 16.6965C92.7374 16.1763 92.5188 15.6516 92.0841 15.3481C88.2584 12.6787 83.4879 11.8334 78.9961 13.0283C72.8442 14.6645 68.5296 19.7493 67.5648 25.6498C67.2676 25.7022 66.9673 25.7662 66.6617 25.8457L32.5305 33.8701C32.5183 33.8732 32.5058 33.877 32.4931 33.8796C28.3947 34.9696 25.9596 39.1872 27.0647 43.2819C28.1705 47.3762 32.3912 49.7711 36.4892 48.6809C36.5064 48.6769 36.5227 48.6724 36.5397 48.6667L70.0578 38.4024C70.3555 38.3226 70.6447 38.2262 70.9268 38.1188C74.7343 42.7541 81.0347 45.0212 87.1914 43.3844C91.6828 42.1889 95.3895 39.0898 97.3571 34.8799ZM34.7537 43.9876C33.2436 44.389 31.6912 43.4919 31.2835 41.9841C30.876 40.4767 31.7698 38.9285 33.2792 38.5274C34.7888 38.1266 36.3416 39.0231 36.7494 40.5309C37.1567 42.0386 36.2628 43.5868 34.7537 43.9876Z" fill="#F97316"/>
</g>
<defs>
<clipPath id="clip0_7_16">
<rect width="99" height="59" fill="white"/>
</clipPath>
</defs>
</svg>
